<svg width="1968" height="1952" viewBox="0 0 1968 1952" fill="none" xmlns="http://www.w3.org/2000/svg">
<g filter="url(#filter0_i_55_321)">
<path d="M1288.27 137.837C1424.22 205.093 1572.54 264.114 1719.47 372.547C1866.41 480.98 2011.98 638.825 1954.3 763.729C1896.62 887.261 1635.71 979.223 1538.2 1171.38C1439.33 1363.54 1503.87 1657.27 1424.22 1813.75C1344.57 1970.22 1123.48 1989.43 955.942 1893.36C789.777 1797.28 678.543 1585.9 494.527 1489.82C311.883 1393.74 56.4566 1412.96 8.39254 1316.88C-38.2983 1220.8 123.746 1008.05 152.585 813.142C181.423 618.237 77.0556 439.803 121 336.86C163.571 232.545 353.081 205.093 506.886 147.445C662.064 91.1698 781.538 6.07042 903.758 0.580142C1025.98 -3.53757 1152.32 70.5812 1288.27 137.837Z" fill="#493797"/>
</g>
<g filter="url(#filter1_i_55_321)">
<path d="M1208.51 356.636C1308.86 406.339 1418.35 449.955 1526.81 530.088C1635.28 610.22 1742.74 726.868 1700.16 819.173C1657.58 910.463 1464.98 978.423 1393 1120.43C1320.02 1262.44 1367.66 1479.5 1308.86 1595.14C1250.07 1710.77 1086.86 1724.97 963.188 1653.97C840.528 1582.97 758.417 1426.76 622.579 1355.76C487.755 1284.75 299.204 1298.95 263.724 1227.95C229.258 1156.95 348.876 999.724 370.164 855.689C391.452 711.653 314.41 579.79 346.849 503.715C378.274 426.625 518.167 406.339 631.703 363.737C746.253 322.149 834.446 259.26 924.667 255.203C1014.89 252.16 1108.15 306.934 1208.51 356.636Z" fill="#3E2F80"/>
</g>
<g filter="url(#filter2_i_55_321)">
<path d="M1138.93 548.395C1208.24 582.713 1283.86 612.829 1358.77 668.158C1433.68 723.488 1507.89 804.031 1478.49 867.765C1449.08 930.798 1316.06 977.723 1266.35 1075.78C1215.94 1173.83 1248.85 1323.71 1208.24 1403.55C1167.64 1483.39 1054.92 1493.2 969.505 1444.17C884.792 1395.15 828.082 1287.29 734.267 1238.26C641.152 1189.24 510.931 1199.04 486.427 1150.02C462.624 1100.99 545.237 992.431 559.939 892.978C574.642 793.525 521.433 702.477 543.837 649.949C565.54 596.72 662.156 582.713 740.568 553.297C819.681 524.582 880.591 481.159 942.901 478.357C1005.21 476.256 1069.62 514.076 1138.93 548.395Z" fill="#322668"/>
</g>
<g filter="url(#filter3_i_55_321)">
<path d="M1076.01 721.713C1117.24 742.127 1162.22 760.041 1206.78 792.952C1251.34 825.864 1295.49 873.773 1278 911.684C1260.5 949.178 1181.37 977.09 1151.8 1035.41C1121.82 1093.74 1141.39 1182.89 1117.24 1230.38C1093.08 1277.88 1026.03 1283.71 975.22 1254.55C924.827 1225.38 891.093 1161.23 835.286 1132.07C779.895 1102.9 702.431 1108.74 687.855 1079.57C673.694 1050.41 722.838 985.839 731.584 926.681C740.33 867.524 708.678 813.366 722.005 782.121C734.916 750.459 792.389 742.127 839.034 724.63C886.095 707.549 922.328 681.72 959.395 680.053C996.461 678.803 1034.78 701.3 1076.01 721.713Z" fill="#241B49"/>
</g>
<path d="M613.664 1064.17V1023.64L733.042 835.027H766.836V892.724H746.23L665.866 1020.07V1022.27H832.501V1064.17H613.664ZM747.878 1116.37V1051.8L748.428 1033.67V835.027H796.509V1116.37H747.878Z" fill="#F0F0F0"/>
<path d="M982.652 1121.73C960.031 1121.73 940.615 1116 924.405 1104.55C908.287 1093.02 895.877 1076.39 887.177 1054.69C878.568 1032.89 874.263 1006.65 874.263 975.972C874.356 945.293 878.706 919.191 887.314 897.669C896.014 876.056 908.424 859.571 924.543 848.215C940.753 836.858 960.123 831.18 982.652 831.18C1005.18 831.18 1024.55 836.858 1040.76 848.215C1056.97 859.571 1069.38 876.056 1077.99 897.669C1086.69 919.283 1091.04 945.384 1091.04 975.972C1091.04 1006.74 1086.69 1033.03 1077.99 1054.83C1069.38 1076.53 1056.97 1093.11 1040.76 1104.55C1024.64 1116 1005.27 1121.73 982.652 1121.73ZM982.652 1078.73C1000.24 1078.73 1014.11 1070.07 1024.28 1052.77C1034.53 1035.36 1039.66 1009.77 1039.66 975.972C1039.66 953.627 1037.33 934.852 1032.66 919.649C1027.99 904.446 1021.39 892.999 1012.87 885.306C1004.36 877.521 994.284 873.629 982.652 873.629C965.16 873.629 951.331 882.329 941.165 899.73C930.999 917.039 925.87 942.453 925.779 975.972C925.687 998.41 927.932 1017.28 932.51 1032.57C937.182 1047.87 943.776 1059.4 952.293 1067.19C960.81 1074.88 970.929 1078.73 982.652 1078.73Z" fill="#F0F0F0"/>
<mask id="mask0_55_321" style="mask-type:alpha" maskUnits="userSpaceOnUse" x="1133" y="834" width="219" height="282">
<path d="M1133.12 1063.66V1023.13L1252.5 834.519H1286.29V892.217H1265.69L1185.32 1019.56V1021.76H1351.96V1063.66H1133.12ZM1267.34 1115.86V1051.3L1267.89 1033.16V834.519H1315.97V1115.86H1267.34Z" fill="#F0F0F0"/>
</mask>
<g mask="url(#mask0_55_321)">
<path d="M1138.57 547.886C1207.88 582.205 1283.49 612.321 1358.4 667.65C1433.31 722.98 1507.53 803.523 1478.12 867.257C1448.72 930.29 1315.69 977.215 1265.99 1075.27C1215.58 1173.32 1248.48 1323.2 1207.88 1403.04C1167.27 1482.88 1054.55 1492.69 969.139 1443.66C884.425 1394.64 827.716 1286.78 733.901 1237.75C640.786 1188.73 510.565 1198.53 486.061 1149.51C462.257 1100.48 544.87 991.923 559.573 892.47C574.275 793.017 521.067 701.969 543.47 649.441C565.174 596.212 661.789 582.205 740.202 552.789C819.315 524.074 880.224 480.651 942.535 477.849C1004.84 475.748 1069.25 513.568 1138.57 547.886Z" fill="white"/>
</g>
<path d="M540.647 1220.92V1216.55H571.144V1220.92H558.357V1257.21H553.433V1220.92H540.647ZM582.794 1238.87V1257.21H578.108V1216.55H582.794V1231.48H583.191C583.906 1229.9 584.978 1228.65 586.408 1227.73C587.851 1226.79 589.77 1226.32 592.166 1226.32C594.244 1226.32 596.064 1226.73 597.626 1227.57C599.188 1228.39 600.399 1229.65 601.26 1231.36C602.133 1233.05 602.57 1235.21 602.57 1237.83V1257.21H597.884V1238.15C597.884 1235.73 597.256 1233.86 595.998 1232.53C594.754 1231.19 593.026 1230.53 590.816 1230.53C589.28 1230.53 587.904 1230.85 586.686 1231.5C585.481 1232.15 584.528 1233.09 583.827 1234.34C583.138 1235.58 582.794 1237.09 582.794 1238.87ZM611.143 1257.21V1226.71H615.828V1257.21H611.143ZM613.525 1221.63C612.612 1221.63 611.824 1221.32 611.162 1220.7C610.514 1220.08 610.19 1219.33 610.19 1218.45C610.19 1217.58 610.514 1216.83 611.162 1216.21C611.824 1215.59 612.612 1215.28 613.525 1215.28C614.439 1215.28 615.22 1215.59 615.868 1216.21C616.53 1216.83 616.861 1217.58 616.861 1218.45C616.861 1219.33 616.53 1220.08 615.868 1220.7C615.22 1221.32 614.439 1221.63 613.525 1221.63ZM646.013 1233.54L641.804 1234.74C641.539 1234.03 641.149 1233.35 640.633 1232.69C640.13 1232.02 639.441 1231.46 638.568 1231.02C637.694 1230.59 636.576 1230.37 635.212 1230.37C633.346 1230.37 631.79 1230.8 630.546 1231.66C629.315 1232.51 628.7 1233.58 628.7 1234.89C628.7 1236.06 629.123 1236.98 629.97 1237.65C630.818 1238.33 632.141 1238.89 633.941 1239.34L638.468 1240.45C641.195 1241.12 643.227 1242.13 644.564 1243.49C645.901 1244.84 646.569 1246.58 646.569 1248.71C646.569 1250.46 646.066 1252.02 645.06 1253.4C644.068 1254.78 642.678 1255.86 640.891 1256.66C639.104 1257.45 637.026 1257.85 634.656 1257.85C631.546 1257.85 628.971 1257.17 626.932 1255.82C624.894 1254.47 623.603 1252.5 623.061 1249.91L627.508 1248.79C627.932 1250.43 628.733 1251.67 629.911 1252.49C631.102 1253.31 632.657 1253.72 634.577 1253.72C636.761 1253.72 638.495 1253.25 639.779 1252.33C641.076 1251.39 641.725 1250.26 641.725 1248.95C641.725 1247.89 641.354 1247.01 640.613 1246.29C639.871 1245.56 638.733 1245.02 637.198 1244.66L632.115 1243.47C629.322 1242.81 627.27 1241.78 625.96 1240.39C624.662 1238.99 624.014 1237.24 624.014 1235.13C624.014 1233.41 624.497 1231.89 625.463 1230.57C626.443 1229.24 627.773 1228.2 629.454 1227.45C631.148 1226.69 633.068 1226.32 635.212 1226.32C638.23 1226.32 640.6 1226.98 642.32 1228.3C644.054 1229.63 645.285 1231.37 646.013 1233.54ZM669.348 1268.65V1226.71H673.875V1231.56H674.431C674.775 1231.03 675.252 1230.35 675.861 1229.53C676.483 1228.7 677.37 1227.96 678.521 1227.31C679.686 1226.65 681.261 1226.32 683.247 1226.32C685.815 1226.32 688.078 1226.96 690.037 1228.24C691.996 1229.53 693.525 1231.35 694.624 1233.7C695.723 1236.06 696.272 1238.84 696.272 1242.04C696.272 1245.27 695.723 1248.07 694.624 1250.44C693.525 1252.8 692.003 1254.62 690.057 1255.92C688.111 1257.21 685.868 1257.85 683.326 1257.85C681.367 1257.85 679.799 1257.52 678.621 1256.87C677.443 1256.21 676.536 1255.46 675.9 1254.63C675.265 1253.78 674.775 1253.08 674.431 1252.53H674.034V1268.65H669.348ZM673.955 1241.96C673.955 1244.27 674.292 1246.3 674.967 1248.06C675.642 1249.81 676.628 1251.18 677.926 1252.17C679.223 1253.15 680.811 1253.64 682.691 1253.64C684.65 1253.64 686.285 1253.12 687.595 1252.09C688.919 1251.04 689.912 1249.64 690.573 1247.88C691.249 1246.11 691.586 1244.13 691.586 1241.96C691.586 1239.82 691.255 1237.89 690.593 1236.17C689.945 1234.43 688.959 1233.06 687.635 1232.06C686.324 1231.04 684.676 1230.53 682.691 1230.53C680.785 1230.53 679.183 1231.01 677.886 1231.98C676.589 1232.93 675.609 1234.27 674.947 1235.99C674.286 1237.69 673.955 1239.69 673.955 1241.96ZM703.42 1257.21V1226.71H707.947V1231.32H708.264C708.82 1229.81 709.826 1228.59 711.282 1227.65C712.739 1226.71 714.38 1226.24 716.207 1226.24C716.551 1226.24 716.981 1226.24 717.497 1226.26C718.013 1226.27 718.404 1226.29 718.669 1226.32V1231.08C718.51 1231.04 718.146 1230.98 717.577 1230.9C717.021 1230.81 716.432 1230.76 715.809 1230.76C714.327 1230.76 713.003 1231.08 711.838 1231.7C710.687 1232.31 709.773 1233.15 709.098 1234.24C708.437 1235.31 708.106 1236.54 708.106 1237.91V1257.21H703.42ZM735.685 1257.85C732.931 1257.85 730.516 1257.19 728.437 1255.88C726.372 1254.57 724.758 1252.74 723.593 1250.38C722.441 1248.03 721.865 1245.27 721.865 1242.12C721.865 1238.95 722.441 1236.17 723.593 1233.8C724.758 1231.43 726.372 1229.59 728.437 1228.28C730.516 1226.97 732.931 1226.32 735.685 1226.32C738.438 1226.32 740.847 1226.97 742.912 1228.28C744.99 1229.59 746.605 1231.43 747.757 1233.8C748.921 1236.17 749.504 1238.95 749.504 1242.12C749.504 1245.27 748.921 1248.03 747.757 1250.38C746.605 1252.74 744.99 1254.57 742.912 1255.88C740.847 1257.19 738.438 1257.85 735.685 1257.85ZM735.685 1253.64C737.776 1253.64 739.497 1253.1 740.847 1252.03C742.197 1250.96 743.196 1249.55 743.845 1247.8C744.494 1246.05 744.818 1244.16 744.818 1242.12C744.818 1240.08 744.494 1238.18 743.845 1236.42C743.196 1234.66 742.197 1233.24 740.847 1232.15C739.497 1231.07 737.776 1230.53 735.685 1230.53C733.593 1230.53 731.872 1231.07 730.522 1232.15C729.172 1233.24 728.173 1234.66 727.524 1236.42C726.875 1238.18 726.551 1240.08 726.551 1242.12C726.551 1244.16 726.875 1246.05 727.524 1247.8C728.173 1249.55 729.172 1250.96 730.522 1252.03C731.872 1253.1 733.593 1253.64 735.685 1253.64ZM768.173 1257.85C765.631 1257.85 763.388 1257.21 761.442 1255.92C759.496 1254.62 757.974 1252.8 756.875 1250.44C755.776 1248.07 755.227 1245.27 755.227 1242.04C755.227 1238.84 755.776 1236.06 756.875 1233.7C757.974 1231.35 759.503 1229.53 761.462 1228.24C763.421 1226.96 765.684 1226.32 768.252 1226.32C770.238 1226.32 771.806 1226.65 772.958 1227.31C774.123 1227.96 775.01 1228.7 775.618 1229.53C776.241 1230.35 776.724 1231.03 777.068 1231.56H777.465V1216.55H782.151V1257.21H777.624V1252.53H777.068C776.724 1253.08 776.234 1253.78 775.599 1254.63C774.963 1255.46 774.056 1256.21 772.878 1256.87C771.7 1257.52 770.132 1257.85 768.173 1257.85ZM768.808 1253.64C770.688 1253.64 772.276 1253.15 773.573 1252.17C774.871 1251.18 775.857 1249.81 776.532 1248.06C777.207 1246.3 777.544 1244.27 777.544 1241.96C777.544 1239.69 777.213 1237.69 776.552 1235.99C775.89 1234.27 774.91 1232.93 773.613 1231.98C772.316 1231.01 770.714 1230.53 768.808 1230.53C766.823 1230.53 765.168 1231.04 763.844 1232.06C762.534 1233.06 761.548 1234.43 760.886 1236.17C760.237 1237.89 759.913 1239.82 759.913 1241.96C759.913 1244.13 760.244 1246.11 760.906 1247.88C761.581 1249.64 762.574 1251.04 763.884 1252.09C765.208 1253.12 766.849 1253.64 768.808 1253.64ZM810.603 1244.74V1226.71H815.289V1257.21H810.603V1252.05H810.286C809.571 1253.6 808.459 1254.92 806.95 1256C805.441 1257.07 803.535 1257.61 801.232 1257.61C799.326 1257.61 797.631 1257.19 796.149 1256.36C794.666 1255.51 793.501 1254.24 792.654 1252.55C791.807 1250.84 791.383 1248.69 791.383 1246.09V1226.71H796.069V1245.78C796.069 1248 796.691 1249.77 797.936 1251.1C799.193 1252.42 800.795 1253.08 802.741 1253.08C803.906 1253.08 805.09 1252.78 806.295 1252.19C807.513 1251.59 808.532 1250.68 809.352 1249.45C810.186 1248.22 810.603 1246.65 810.603 1244.74ZM836.261 1257.85C833.402 1257.85 830.94 1257.17 828.875 1255.82C826.81 1254.47 825.222 1252.61 824.11 1250.24C822.998 1247.87 822.442 1245.17 822.442 1242.12C822.442 1239.02 823.011 1236.29 824.15 1233.92C825.301 1231.54 826.903 1229.68 828.955 1228.34C831.02 1226.99 833.429 1226.32 836.182 1226.32C838.326 1226.32 840.259 1226.71 841.98 1227.51C843.7 1228.3 845.11 1229.41 846.209 1230.84C847.307 1232.27 847.989 1233.94 848.254 1235.85H843.568C843.211 1234.46 842.416 1233.23 841.185 1232.15C839.968 1231.07 838.326 1230.53 836.261 1230.53C834.435 1230.53 832.833 1231 831.456 1231.96C830.093 1232.9 829.027 1234.23 828.26 1235.95C827.505 1237.65 827.128 1239.66 827.128 1241.96C827.128 1244.32 827.499 1246.37 828.24 1248.12C828.994 1249.87 830.053 1251.22 831.417 1252.19C832.793 1253.15 834.408 1253.64 836.261 1253.64C837.479 1253.64 838.584 1253.43 839.577 1253C840.57 1252.58 841.41 1251.97 842.099 1251.18C842.787 1250.38 843.277 1249.43 843.568 1248.32H848.254C847.989 1250.12 847.334 1251.74 846.288 1253.18C845.256 1254.61 843.886 1255.75 842.178 1256.6C840.484 1257.43 838.512 1257.85 836.261 1257.85ZM868.367 1226.71V1230.69H852.562V1226.71H868.367ZM857.169 1219.41H861.855V1248.48C861.855 1249.8 862.047 1250.79 862.43 1251.45C862.828 1252.1 863.331 1252.54 863.939 1252.76C864.562 1252.98 865.217 1253.08 865.905 1253.08C866.421 1253.08 866.845 1253.06 867.176 1253C867.507 1252.94 867.772 1252.88 867.97 1252.84L868.923 1257.05C868.605 1257.17 868.162 1257.29 867.593 1257.41C867.024 1257.54 866.302 1257.61 865.429 1257.61C864.105 1257.61 862.808 1257.32 861.537 1256.76C860.279 1256.19 859.234 1255.32 858.4 1254.15C857.579 1252.99 857.169 1251.52 857.169 1249.75V1219.41ZM891.141 1257.21V1226.71H895.827V1257.21H891.141ZM893.524 1221.63C892.61 1221.63 891.823 1221.32 891.161 1220.7C890.512 1220.08 890.188 1219.33 890.188 1218.45C890.188 1217.58 890.512 1216.83 891.161 1216.21C891.823 1215.59 892.61 1215.28 893.524 1215.28C894.437 1215.28 895.218 1215.59 895.867 1216.21C896.529 1216.83 896.859 1217.58 896.859 1218.45C896.859 1219.33 896.529 1220.08 895.867 1220.7C895.218 1221.32 894.437 1221.63 893.524 1221.63ZM926.012 1233.54L921.803 1234.74C921.538 1234.03 921.147 1233.35 920.631 1232.69C920.128 1232.02 919.44 1231.46 918.566 1231.02C917.693 1230.59 916.574 1230.37 915.211 1230.37C913.344 1230.37 911.789 1230.8 910.545 1231.66C909.314 1232.51 908.698 1233.58 908.698 1234.89C908.698 1236.06 909.122 1236.98 909.969 1237.65C910.816 1238.33 912.14 1238.89 913.94 1239.34L918.467 1240.45C921.194 1241.12 923.226 1242.13 924.562 1243.49C925.899 1244.84 926.568 1246.58 926.568 1248.71C926.568 1250.46 926.065 1252.02 925.059 1253.4C924.066 1254.78 922.676 1255.86 920.889 1256.66C919.102 1257.45 917.024 1257.85 914.655 1257.85C911.544 1257.85 908.969 1257.17 906.931 1255.82C904.893 1254.47 903.602 1252.5 903.059 1249.91L907.507 1248.79C907.93 1250.43 908.731 1251.67 909.909 1252.49C911.101 1253.31 912.656 1253.72 914.575 1253.72C916.759 1253.72 918.493 1253.25 919.777 1252.33C921.075 1251.39 921.723 1250.26 921.723 1248.95C921.723 1247.89 921.353 1247.01 920.611 1246.29C919.87 1245.56 918.732 1245.02 917.196 1244.66L912.113 1243.47C909.32 1242.81 907.269 1241.78 905.958 1240.39C904.661 1238.99 904.012 1237.24 904.012 1235.13C904.012 1233.41 904.495 1231.89 905.462 1230.57C906.441 1229.24 907.772 1228.2 909.453 1227.45C911.147 1226.69 913.066 1226.32 915.211 1226.32C918.229 1226.32 920.598 1226.98 922.319 1228.3C924.053 1229.63 925.284 1231.37 926.012 1233.54ZM954.033 1238.87V1257.21H949.347V1226.71H953.874V1231.48H954.271C954.986 1229.93 956.071 1228.69 957.527 1227.75C958.983 1226.79 960.863 1226.32 963.166 1226.32C965.231 1226.32 967.038 1226.74 968.586 1227.59C970.135 1228.42 971.34 1229.69 972.2 1231.4C973.061 1233.09 973.491 1235.24 973.491 1237.83V1257.21H968.805V1238.15C968.805 1235.76 968.183 1233.89 966.939 1232.55C965.694 1231.2 963.987 1230.53 961.816 1230.53C960.32 1230.53 958.983 1230.85 957.805 1231.5C956.64 1232.15 955.72 1233.09 955.045 1234.34C954.37 1235.58 954.033 1237.09 954.033 1238.87ZM994.443 1257.85C991.69 1257.85 989.274 1257.19 987.196 1255.88C985.131 1254.57 983.516 1252.74 982.351 1250.38C981.2 1248.03 980.624 1245.27 980.624 1242.12C980.624 1238.95 981.2 1236.17 982.351 1233.8C983.516 1231.43 985.131 1229.59 987.196 1228.28C989.274 1226.97 991.69 1226.32 994.443 1226.32C997.196 1226.32 999.605 1226.97 1001.67 1228.28C1003.75 1229.59 1005.36 1231.43 1006.51 1233.8C1007.68 1236.17 1008.26 1238.95 1008.26 1242.12C1008.26 1245.27 1007.68 1248.03 1006.51 1250.38C1005.36 1252.74 1003.75 1254.57 1001.67 1255.88C999.605 1257.19 997.196 1257.85 994.443 1257.85ZM994.443 1253.64C996.534 1253.64 998.255 1253.1 999.605 1252.03C1000.96 1250.96 1001.95 1249.55 1002.6 1247.8C1003.25 1246.05 1003.58 1244.16 1003.58 1242.12C1003.58 1240.08 1003.25 1238.18 1002.6 1236.42C1001.95 1234.66 1000.96 1233.24 999.605 1232.15C998.255 1231.07 996.534 1230.53 994.443 1230.53C992.352 1230.53 990.631 1231.07 989.281 1232.15C987.93 1233.24 986.931 1234.66 986.282 1236.42C985.634 1238.18 985.31 1240.08 985.31 1242.12C985.31 1244.16 985.634 1246.05 986.282 1247.8C986.931 1249.55 987.93 1250.96 989.281 1252.03C990.631 1253.1 992.352 1253.64 994.443 1253.64ZM1031.14 1257.21V1226.71H1035.67V1231.48H1036.06C1036.7 1229.85 1037.73 1228.59 1039.14 1227.69C1040.56 1226.77 1042.26 1226.32 1044.24 1226.32C1046.26 1226.32 1047.93 1226.77 1049.27 1227.69C1050.62 1228.59 1051.67 1229.85 1052.43 1231.48H1052.74C1053.52 1229.9 1054.7 1228.65 1056.26 1227.73C1057.82 1226.79 1059.69 1226.32 1061.88 1226.32C1064.6 1226.32 1066.83 1227.17 1068.57 1228.88C1070.3 1230.57 1071.17 1233.21 1071.17 1236.8V1257.21H1066.48V1236.8C1066.48 1234.55 1065.87 1232.94 1064.64 1231.98C1063.41 1231.01 1061.96 1230.53 1060.29 1230.53C1058.14 1230.53 1056.48 1231.18 1055.3 1232.47C1054.13 1233.76 1053.54 1235.38 1053.54 1237.36V1257.21H1048.77V1236.32C1048.77 1234.59 1048.21 1233.19 1047.08 1232.13C1045.96 1231.06 1044.51 1230.53 1042.74 1230.53C1041.52 1230.53 1040.38 1230.85 1039.32 1231.5C1038.28 1232.15 1037.43 1233.05 1036.78 1234.2C1036.14 1235.34 1035.83 1236.66 1035.83 1238.15V1257.21H1031.14ZM1092.13 1257.85C1089.37 1257.85 1086.96 1257.19 1084.88 1255.88C1082.81 1254.57 1081.2 1252.74 1080.03 1250.38C1078.88 1248.03 1078.31 1245.27 1078.31 1242.12C1078.31 1238.95 1078.88 1236.17 1080.03 1233.8C1081.2 1231.43 1082.81 1229.59 1084.88 1228.28C1086.96 1226.97 1089.37 1226.32 1092.13 1226.32C1094.88 1226.32 1097.29 1226.97 1099.35 1228.28C1101.43 1229.59 1103.05 1231.43 1104.2 1233.8C1105.36 1236.17 1105.95 1238.95 1105.95 1242.12C1105.95 1245.27 1105.36 1248.03 1104.2 1250.38C1103.05 1252.74 1101.43 1254.57 1099.35 1255.88C1097.29 1257.19 1094.88 1257.85 1092.13 1257.85ZM1092.13 1253.64C1094.22 1253.64 1095.94 1253.1 1097.29 1252.03C1098.64 1250.96 1099.64 1249.55 1100.29 1247.8C1100.93 1246.05 1101.26 1244.16 1101.26 1242.12C1101.26 1240.08 1100.93 1238.18 1100.29 1236.42C1099.64 1234.66 1098.64 1233.24 1097.29 1232.15C1095.94 1231.07 1094.22 1230.53 1092.13 1230.53C1090.03 1230.53 1088.31 1231.07 1086.96 1232.15C1085.61 1233.24 1084.61 1234.66 1083.97 1236.42C1083.32 1238.18 1082.99 1240.08 1082.99 1242.12C1082.99 1244.16 1083.32 1246.05 1083.97 1247.8C1084.61 1249.55 1085.61 1250.96 1086.96 1252.03C1088.31 1253.1 1090.03 1253.64 1092.13 1253.64ZM1113.1 1257.21V1226.71H1117.62V1231.32H1117.94C1118.5 1229.81 1119.5 1228.59 1120.96 1227.65C1122.42 1226.71 1124.06 1226.24 1125.88 1226.24C1126.23 1226.24 1126.66 1226.24 1127.18 1226.26C1127.69 1226.27 1128.08 1226.29 1128.35 1226.32V1231.08C1128.19 1231.04 1127.82 1230.98 1127.25 1230.9C1126.7 1230.81 1126.11 1230.76 1125.49 1230.76C1124.01 1230.76 1122.68 1231.08 1121.52 1231.7C1120.36 1232.31 1119.45 1233.15 1118.78 1234.24C1118.11 1235.31 1117.78 1236.54 1117.78 1237.91V1257.21H1113.1ZM1145.76 1257.85C1142.82 1257.85 1140.29 1257.2 1138.16 1255.9C1136.04 1254.59 1134.4 1252.76 1133.25 1250.42C1132.11 1248.07 1131.54 1245.33 1131.54 1242.2C1131.54 1239.08 1132.11 1236.32 1133.25 1233.94C1134.4 1231.55 1136 1229.68 1138.06 1228.34C1140.12 1226.99 1142.53 1226.32 1145.28 1226.32C1146.87 1226.32 1148.44 1226.58 1149.99 1227.11C1151.54 1227.64 1152.95 1228.5 1154.22 1229.69C1155.49 1230.87 1156.5 1232.43 1157.26 1234.38C1158.01 1236.32 1158.39 1238.72 1158.39 1241.57V1243.55H1134.88V1239.5H1153.62C1153.62 1237.78 1153.28 1236.24 1152.59 1234.89C1151.91 1233.54 1150.95 1232.48 1149.69 1231.7C1148.45 1230.92 1146.98 1230.53 1145.28 1230.53C1143.42 1230.53 1141.8 1230.99 1140.44 1231.92C1139.09 1232.83 1138.05 1234.02 1137.32 1235.49C1136.59 1236.96 1136.23 1238.53 1136.23 1240.22V1242.92C1136.23 1245.22 1136.63 1247.17 1137.42 1248.77C1138.23 1250.36 1139.35 1251.57 1140.78 1252.41C1142.21 1253.23 1143.87 1253.64 1145.76 1253.64C1146.99 1253.64 1148.1 1253.47 1149.1 1253.12C1150.1 1252.76 1150.97 1252.23 1151.7 1251.53C1152.42 1250.82 1152.99 1249.93 1153.38 1248.87L1157.91 1250.14C1157.43 1251.68 1156.63 1253.03 1155.51 1254.19C1154.38 1255.35 1152.99 1256.25 1151.34 1256.89C1149.68 1257.53 1147.82 1257.85 1145.76 1257.85ZM1190.22 1257.93C1188.28 1257.93 1186.53 1257.56 1184.95 1256.83C1183.38 1256.09 1182.13 1255.03 1181.2 1253.64C1180.27 1252.23 1179.81 1250.54 1179.81 1248.56C1179.81 1246.81 1180.16 1245.39 1180.84 1244.31C1181.53 1243.21 1182.45 1242.35 1183.6 1241.72C1184.76 1241.1 1186.03 1240.64 1187.42 1240.33C1188.82 1240.02 1190.23 1239.77 1191.65 1239.58C1193.5 1239.34 1195 1239.16 1196.15 1239.04C1197.32 1238.91 1198.16 1238.69 1198.69 1238.39C1199.24 1238.08 1199.51 1237.56 1199.51 1236.8V1236.64C1199.51 1234.68 1198.97 1233.16 1197.9 1232.08C1196.84 1230.99 1195.23 1230.45 1193.07 1230.45C1190.84 1230.45 1189.08 1230.94 1187.81 1231.92C1186.54 1232.9 1185.65 1233.94 1185.13 1235.05L1180.69 1233.47C1181.48 1231.61 1182.54 1230.17 1183.86 1229.14C1185.2 1228.09 1186.65 1227.36 1188.23 1226.95C1189.82 1226.53 1191.38 1226.32 1192.92 1226.32C1193.9 1226.32 1195.02 1226.44 1196.29 1226.67C1197.58 1226.9 1198.81 1227.37 1200 1228.08C1201.21 1228.8 1202.21 1229.88 1203 1231.32C1203.8 1232.76 1204.19 1234.7 1204.19 1237.12V1257.21H1199.51V1253.08H1199.27C1198.95 1253.74 1198.42 1254.45 1197.68 1255.21C1196.94 1255.96 1195.95 1256.6 1194.72 1257.13C1193.49 1257.66 1191.99 1257.93 1190.22 1257.93ZM1190.93 1253.72C1192.78 1253.72 1194.35 1253.35 1195.62 1252.63C1196.9 1251.9 1197.87 1250.96 1198.52 1249.81C1199.18 1248.65 1199.51 1247.44 1199.51 1246.17V1241.88C1199.31 1242.12 1198.87 1242.34 1198.2 1242.54C1197.54 1242.72 1196.77 1242.89 1195.89 1243.04C1195.03 1243.17 1194.19 1243.29 1193.37 1243.39C1192.57 1243.49 1191.91 1243.56 1191.41 1243.63C1190.19 1243.79 1189.05 1244.05 1187.99 1244.41C1186.95 1244.75 1186.1 1245.27 1185.45 1245.97C1184.81 1246.66 1184.5 1247.6 1184.5 1248.79C1184.5 1250.42 1185.1 1251.65 1186.3 1252.49C1187.52 1253.31 1189.06 1253.72 1190.93 1253.72ZM1236.59 1226.71L1225.31 1257.21H1220.55L1209.27 1226.71H1214.35L1222.77 1251.02H1223.09L1231.51 1226.71H1236.59ZM1250.82 1257.93C1248.89 1257.93 1247.14 1257.56 1245.56 1256.83C1243.99 1256.09 1242.74 1255.03 1241.81 1253.64C1240.88 1252.23 1240.42 1250.54 1240.42 1248.56C1240.42 1246.81 1240.76 1245.39 1241.45 1244.31C1242.14 1243.21 1243.06 1242.35 1244.21 1241.72C1245.36 1241.1 1246.63 1240.64 1248.02 1240.33C1249.43 1240.02 1250.84 1239.77 1252.25 1239.58C1254.11 1239.34 1255.61 1239.16 1256.76 1239.04C1257.93 1238.91 1258.77 1238.69 1259.3 1238.39C1259.84 1238.08 1260.12 1237.56 1260.12 1236.8V1236.64C1260.12 1234.68 1259.58 1233.16 1258.51 1232.08C1257.45 1230.99 1255.84 1230.45 1253.68 1230.45C1251.45 1230.45 1249.69 1230.94 1248.42 1231.92C1247.15 1232.9 1246.26 1233.94 1245.74 1235.05L1241.29 1233.47C1242.09 1231.61 1243.15 1230.17 1244.47 1229.14C1245.81 1228.09 1247.26 1227.36 1248.84 1226.95C1250.43 1226.53 1251.99 1226.32 1253.52 1226.32C1254.5 1226.32 1255.63 1226.44 1256.9 1226.67C1258.18 1226.9 1259.42 1227.37 1260.61 1228.08C1261.82 1228.8 1262.82 1229.88 1263.61 1231.32C1264.4 1232.76 1264.8 1234.7 1264.8 1237.12V1257.21H1260.12V1253.08H1259.88C1259.56 1253.74 1259.03 1254.45 1258.29 1255.21C1257.55 1255.96 1256.56 1256.6 1255.33 1257.13C1254.1 1257.66 1252.6 1257.93 1250.82 1257.93ZM1251.54 1253.72C1253.39 1253.72 1254.95 1253.35 1256.22 1252.63C1257.51 1251.9 1258.47 1250.96 1259.12 1249.81C1259.79 1248.65 1260.12 1247.44 1260.12 1246.17V1241.88C1259.92 1242.12 1259.48 1242.34 1258.81 1242.54C1258.14 1242.72 1257.38 1242.89 1256.5 1243.04C1255.64 1243.17 1254.8 1243.29 1253.98 1243.39C1253.17 1243.49 1252.52 1243.56 1252.02 1243.63C1250.8 1243.79 1249.66 1244.05 1248.6 1244.41C1247.55 1244.75 1246.71 1245.27 1246.06 1245.97C1245.42 1246.66 1245.11 1247.6 1245.11 1248.79C1245.11 1250.42 1245.71 1251.65 1246.91 1252.49C1248.13 1253.31 1249.67 1253.72 1251.54 1253.72ZM1273.35 1257.21V1226.71H1278.04V1257.21H1273.35ZM1275.74 1221.63C1274.82 1221.63 1274.04 1221.32 1273.37 1220.7C1272.73 1220.08 1272.4 1219.33 1272.4 1218.45C1272.4 1217.58 1272.73 1216.83 1273.37 1216.21C1274.04 1215.59 1274.82 1215.28 1275.74 1215.28C1276.65 1215.28 1277.43 1215.59 1278.08 1216.21C1278.74 1216.83 1279.07 1217.58 1279.07 1218.45C1279.07 1219.33 1278.74 1220.08 1278.08 1220.7C1277.43 1221.32 1276.65 1221.63 1275.74 1221.63ZM1291.31 1216.55V1257.21H1286.62V1216.55H1291.31ZM1308.87 1257.93C1306.93 1257.93 1305.18 1257.56 1303.6 1256.83C1302.03 1256.09 1300.78 1255.03 1299.85 1253.64C1298.92 1252.23 1298.46 1250.54 1298.46 1248.56C1298.46 1246.81 1298.81 1245.39 1299.49 1244.31C1300.18 1243.21 1301.1 1242.35 1302.25 1241.72C1303.41 1241.1 1304.68 1240.64 1306.07 1240.33C1307.47 1240.02 1308.88 1239.77 1310.3 1239.58C1312.15 1239.34 1313.65 1239.16 1314.8 1239.04C1315.97 1238.91 1316.81 1238.69 1317.34 1238.39C1317.89 1238.08 1318.16 1237.56 1318.16 1236.8V1236.64C1318.16 1234.68 1317.62 1233.16 1316.55 1232.08C1315.49 1230.99 1313.88 1230.45 1311.72 1230.45C1309.49 1230.45 1307.73 1230.94 1306.46 1231.92C1305.19 1232.9 1304.3 1233.94 1303.78 1235.05L1299.34 1233.47C1300.13 1231.61 1301.19 1230.17 1302.51 1229.14C1303.85 1228.09 1305.3 1227.36 1306.88 1226.95C1308.47 1226.53 1310.03 1226.32 1311.57 1226.32C1312.55 1226.32 1313.67 1226.44 1314.94 1226.67C1316.23 1226.9 1317.46 1227.37 1318.65 1228.08C1319.86 1228.8 1320.86 1229.88 1321.65 1231.32C1322.45 1232.76 1322.84 1234.7 1322.84 1237.12V1257.21H1318.16V1253.08H1317.92C1317.6 1253.74 1317.07 1254.45 1316.33 1255.21C1315.59 1255.96 1314.6 1256.6 1313.37 1257.13C1312.14 1257.66 1310.64 1257.93 1308.87 1257.93ZM1309.58 1253.72C1311.43 1253.72 1313 1253.35 1314.27 1252.63C1315.55 1251.9 1316.52 1250.96 1317.17 1249.81C1317.83 1248.65 1318.16 1247.44 1318.16 1246.17V1241.88C1317.96 1242.12 1317.52 1242.34 1316.85 1242.54C1316.19 1242.72 1315.42 1242.89 1314.54 1243.04C1313.68 1243.17 1312.84 1243.29 1312.02 1243.39C1311.22 1243.49 1310.56 1243.56 1310.06 1243.63C1308.84 1243.79 1307.7 1244.05 1306.64 1244.41C1305.6 1244.75 1304.75 1245.27 1304.1 1245.97C1303.46 1246.66 1303.15 1247.6 1303.15 1248.79C1303.15 1250.42 1303.75 1251.65 1304.95 1252.49C1306.17 1253.31 1307.71 1253.72 1309.58 1253.72ZM1332.03 1257.21V1216.55H1336.72V1231.56H1337.11C1337.46 1231.03 1337.94 1230.35 1338.54 1229.53C1339.17 1228.7 1340.05 1227.96 1341.2 1227.31C1342.37 1226.65 1343.94 1226.32 1345.93 1226.32C1348.5 1226.32 1350.76 1226.96 1352.72 1228.24C1354.68 1229.53 1356.21 1231.35 1357.31 1233.7C1358.41 1236.06 1358.96 1238.84 1358.96 1242.04C1358.96 1245.27 1358.41 1248.07 1357.31 1250.44C1356.21 1252.8 1354.69 1254.62 1352.74 1255.92C1350.79 1257.21 1348.55 1257.85 1346.01 1257.85C1344.05 1257.85 1342.48 1257.52 1341.3 1256.87C1340.13 1256.21 1339.22 1255.46 1338.58 1254.63C1337.95 1253.78 1337.46 1253.08 1337.11 1252.53H1336.56V1257.21H1332.03ZM1336.64 1241.96C1336.64 1244.27 1336.98 1246.3 1337.65 1248.06C1338.33 1249.81 1339.31 1251.18 1340.61 1252.17C1341.91 1253.15 1343.49 1253.64 1345.37 1253.64C1347.33 1253.64 1348.97 1253.12 1350.28 1252.09C1351.6 1251.04 1352.59 1249.64 1353.26 1247.88C1353.93 1246.11 1354.27 1244.13 1354.27 1241.96C1354.27 1239.82 1353.94 1237.89 1353.28 1236.17C1352.63 1234.43 1351.64 1233.06 1350.32 1232.06C1349.01 1231.04 1347.36 1230.53 1345.37 1230.53C1343.47 1230.53 1341.87 1231.01 1340.57 1231.98C1339.27 1232.93 1338.29 1234.27 1337.63 1235.99C1336.97 1237.69 1336.64 1239.69 1336.64 1241.96ZM1370.81 1216.55V1257.21H1366.12V1216.55H1370.81ZM1392.18 1257.85C1389.24 1257.85 1386.7 1257.2 1384.57 1255.9C1382.46 1254.59 1380.82 1252.76 1379.67 1250.42C1378.53 1248.07 1377.96 1245.33 1377.96 1242.2C1377.96 1239.08 1378.53 1236.32 1379.67 1233.94C1380.82 1231.55 1382.42 1229.68 1384.47 1228.34C1386.54 1226.99 1388.95 1226.32 1391.7 1226.32C1393.29 1226.32 1394.86 1226.58 1396.41 1227.11C1397.96 1227.64 1399.37 1228.5 1400.64 1229.69C1401.91 1230.87 1402.92 1232.43 1403.67 1234.38C1404.43 1236.32 1404.81 1238.72 1404.81 1241.57V1243.55H1381.3V1239.5H1400.04C1400.04 1237.78 1399.7 1236.24 1399.01 1234.89C1398.33 1233.54 1397.37 1232.48 1396.11 1231.7C1394.87 1230.92 1393.4 1230.53 1391.7 1230.53C1389.84 1230.53 1388.22 1230.99 1386.86 1231.92C1385.51 1232.83 1384.47 1234.02 1383.74 1235.49C1383.01 1236.96 1382.65 1238.53 1382.65 1240.22V1242.92C1382.65 1245.22 1383.04 1247.17 1383.84 1248.77C1384.65 1250.36 1385.76 1251.57 1387.19 1252.41C1388.62 1253.23 1390.29 1253.64 1392.18 1253.64C1393.41 1253.64 1394.52 1253.47 1395.51 1253.12C1396.52 1252.76 1397.39 1252.23 1398.11 1251.53C1398.84 1250.82 1399.41 1249.93 1399.8 1248.87L1404.33 1250.14C1403.85 1251.68 1403.05 1253.03 1401.93 1254.19C1400.8 1255.35 1399.41 1256.25 1397.76 1256.89C1396.1 1257.53 1394.24 1257.85 1392.18 1257.85Z" fill="white"/>
<defs>
<filter id="filter0_i_55_321" x="0" y="0.416016" width="1967.23" height="1951.49" filterUnits="userSpaceOnUse" color-interpolation-filters="sRGB">
<feFlood flood-opacity="0" result="BackgroundImageFix"/>
<feBlend mode="normal" in="SourceGraphic" in2="BackgroundImageFix" result="shape"/>
<feColorMatrix in="SourceAlpha" type="matrix" values="0 0 0 0 0 0 0 0 0 0 0 0 0 0 0 0 0 0 127 0" result="hardAlpha"/>
<feOffset/>
<feGaussianBlur stdDeviation="48.6441"/>
<feComposite in2="hardAlpha" operator="arithmetic" k2="-1" k3="1"/>
<feColorMatrix type="matrix" values="0 0 0 0 0 0 0 0 0 0 0 0 0 0 0 0 0 0 0.25 0"/>
<feBlend mode="normal" in2="shape" result="effect1_innerShadow_55_321"/>
</filter>
<filter id="filter1_i_55_321" x="257.529" y="255.082" width="1452.17" height="1442.16" filterUnits="userSpaceOnUse" color-interpolation-filters="sRGB">
<feFlood flood-opacity="0" result="BackgroundImageFix"/>
<feBlend mode="normal" in="SourceGraphic" in2="BackgroundImageFix" result="shape"/>
<feColorMatrix in="SourceAlpha" type="matrix" values="0 0 0 0 0 0 0 0 0 0 0 0 0 0 0 0 0 0 127 0" result="hardAlpha"/>
<feOffset/>
<feGaussianBlur stdDeviation="48.6441"/>
<feComposite in2="hardAlpha" operator="arithmetic" k2="-1" k3="1"/>
<feColorMatrix type="matrix" values="0 0 0 0 0 0 0 0 0 0 0 0 0 0 0 0 0 0 0.25 0"/>
<feBlend mode="normal" in2="shape" result="effect1_innerShadow_55_321"/>
</filter>
<filter id="filter2_i_55_321" x="482.149" y="478.273" width="1002.93" height="995.774" filterUnits="userSpaceOnUse" color-interpolation-filters="sRGB">
<feFlood flood-opacity="0" result="BackgroundImageFix"/>
<feBlend mode="normal" in="SourceGraphic" in2="BackgroundImageFix" result="shape"/>
<feColorMatrix in="SourceAlpha" type="matrix" values="0 0 0 0 0 0 0 0 0 0 0 0 0 0 0 0 0 0 127 0" result="hardAlpha"/>
<feOffset/>
<feGaussianBlur stdDeviation="48.6441"/>
<feComposite in2="hardAlpha" operator="arithmetic" k2="-1" k3="1"/>
<feColorMatrix type="matrix" values="0 0 0 0 0 0 0 0 0 0 0 0 0 0 0 0 0 0 0.25 0"/>
<feBlend mode="normal" in2="shape" result="effect1_innerShadow_55_321"/>
</filter>
<filter id="filter3_i_55_321" x="685.309" y="680.003" width="596.606" height="592.314" filterUnits="userSpaceOnUse" color-interpolation-filters="sRGB">
<feFlood flood-opacity="0" result="BackgroundImageFix"/>
<feBlend mode="normal" in="SourceGraphic" in2="BackgroundImageFix" result="shape"/>
<feColorMatrix in="SourceAlpha" type="matrix" values="0 0 0 0 0 0 0 0 0 0 0 0 0 0 0 0 0 0 127 0" result="hardAlpha"/>
<feOffset/>
<feGaussianBlur stdDeviation="48.6441"/>
<feComposite in2="hardAlpha" operator="arithmetic" k2="-1" k3="1"/>
<feColorMatrix type="matrix" values="0 0 0 0 0 0 0 0 0 0 0 0 0 0 0 0 0 0 0.25 0"/>
<feBlend mode="normal" in2="shape" result="effect1_innerShadow_55_321"/>
</filter>
</defs>
</svg>
